{"title":"The.Water.Diviner.2014.LIMITED.BRRip.XviD.MP3-RARBG","uid":11763618,"size":1508798758,"categoryP":"video","categoryS":"hd___movies","magnet":"?xt=urn:btih:981eb13c5fe46da19f6ddf2684e1f9f4c2ab88e4&amp;dn=The.Water.Diviner.2014.LIMITED.BRRip.XviD.MP3-RARBG&amp;tr=udp%3A%2F%2Ftracker.openbittorrent.com%3A80&amp;tr=udp%3A%2F%2Fopen.demonii.com%3A1337&amp;tr=udp%3A%2F%2Ftracker.coppersurfer.tk%3A6969&amp;tr=udp%3A%2F%2Fexodus.desync.com%3A6969","seeders":8,"leechers":1,"uploader":"vickey1992","files":8,"time":1426661489,"description":"Video\nID : 0\nFormat : MPEG-4 Visual\nFormat profile : Simple@L5\nFormat settings, BVOP : No\nFormat settings, QPel : No\nFormat settings, GMC : No warppoints\nFormat settings, Matrix : Default (H.263)\nCodec ID : XVID\nCodec ID/Hint : XviD\nDuration : 1h 51mn\nBit rate : 1 596 Kbps\nWidth : 720 pixels\nHeight : 302 pixels\nDisplay aspect ratio : 2.40:1\nOriginal display aspect ratio : 2.40:1\nFrame rate : 24.000 fps\nColor space : YUV\nChroma subsampling : 4:2:0\nBit depth : 8 bits\nScan type : Progressive\nCompression mode : Lossy\nBits/(Pixel*Frame) : 0.306\nStream size : 1.24 GiB (89%)\nTitle : RARBG.COM - The.Water.Diviner.2014.LIMITED.BRRip.XviD.MP3-RARBG\nWriting library : Lavc56.19.100\n\nAudio\nID : 1\nFormat : MPEG Audio\nFormat version : Version 1\nFormat profile : Layer 3\nMode : Joint stereo\nMode extension : MS Stereo\nCodec ID : 55\nCodec ID/Hint : MP3\nDuration : 1h 51mn\nBit rate mode : Constant\nBit rate : 192 Kbps\nChannel(s) : 2 channels\nSampling rate : 48.0 KHz\nCompression mode : Lossy\nStream size : 153 MiB (11%)\nAlignment : Aligned on interleaves\nInterleave, duration : 24 ms (0.58 video frame)\nInterleave, preload duration : 24 ms\nTitle : RARBG.COM - The.Water.Diviner.2014.LIMITED.BRRip.XviD.MP3-RARBG\nWriting library : LAME3.99.5","torrent":{"xt":"urn:btih:981eb13c5fe46da19f6ddf2684e1f9f4c2ab88e4","amp;dn":"The.Water.Diviner.2014.LIMITED.BRRip.XviD.MP3-RARBG","amp;tr":["udp%3A%2F%2Ftracker.openbittorrent.com%3A80","udp%3A%2F%2Fopen.demonii.com%3A1337","udp%3A%2F%2Ftracker.coppersurfer.tk%3A6969","udp%3A%2F%2Fexodus.desync.com%3A6969"],"infoHash":"981eb13c5fe46da19f6ddf2684e1f9f4c2ab88e4","infoHashBuffer":{"type":"Buffer","data":[152,30,177,60,95,228,109,161,159,109,223,38,132,225,249,244,194,171,136,228]},"announce":[],"urlList":[]}}